<?xml version="1.0" standalone="no"?>
<!DOCTYPE svg PUBLIC "-//W3C//DTD SVG 20010904//EN"
 "http://www.w3.org/TR/2001/REC-SVG-20010904/DTD/svg10.dtd">
<svg version="1.0" xmlns="http://www.w3.org/2000/svg"
 width="225.000000pt" height="225.000000pt" viewBox="0 0 225.000000 225.000000"
 preserveAspectRatio="xMidYMid meet">
<metadata>
Created by potrace 1.11, written by Peter Selinger 2001-2013
</metadata>
<g transform="translate(0.000000,225.000000) scale(0.100000,-0.100000)"
fill="#000000" stroke="none">
<path d="M988 2019 c-58 -30 -71 -65 -76 -206 l-4 -123 217 0 217 0 -4 123
c-5 142 -18 176 -78 207 -56 28 -218 28 -272 -1z"/>
<path d="M915 1608 c-3 -7 -4 -260 -3 -563 l3 -550 210 0 210 0 0 560 0 560
-208 3 c-160 2 -209 0 -212 -10z"/>
<path d="M927 408 c6 -7 52 -69 102 -138 51 -69 95 -123 99 -121 4 2 47 58 96
125 49 67 93 127 99 134 7 9 -33 12 -198 12 -165 0 -205 -3 -198 -12z"/>
</g>
</svg>
